<?xml version="1.0" encoding="UTF-8"?>
<svg id="Layer_1" xmlns="http://www.w3.org/2000/svg" version="1.1" viewBox="0 0 1080 1080">
  <!-- Generator: Adobe Illustrator 30.0.0, SVG Export Plug-In . SVG Version: 2.1.1 Build 123)  -->
  <defs>
    <style>
      .st0 {
        fill: none;
        stroke: #d97757;
        stroke-linecap: round;
        stroke-linejoin: round;
        stroke-width: 75px;
      }
    </style>
  </defs>
  <path class="st0" d="M588.7,995.11c-5.02,26.9-30.9,44.63-57.8,39.61-20.11-3.76-35.85-19.49-39.61-39.61-35.02-208.23-198.17-371.39-406.41-406.41-26.9-5.02-44.63-30.9-39.61-57.8,3.76-20.11,19.49-35.85,39.61-39.61,208.23-35.02,371.39-198.17,406.41-406.41,5.02-26.9,30.9-44.63,57.8-39.61,20.11,3.76,35.85,19.49,39.61,39.61,35.02,208.23,198.18,371.39,406.41,406.41,26.9,5.02,44.63,30.9,39.61,57.8-3.76,20.11-19.49,35.85-39.61,39.61-208.23,35.02-371.39,198.17-406.41,406.41"/>
</svg>